<svg width="500" height="500" viewBox="0 0 500 500" fill="none" xmlns="http://www.w3.org/2000/svg">
<g filter="url(#filter0_d_1_390)">
<path d="M409.45 403.64L418.1 398.04C418.1 398.04 422.3 375.73 419.18 356.04C414.8 328.26 395.92 318.71 389.06 321.45C382.2 324.19 380.58 332.45 392.97 348.45C400.28 357.91 409.68 377.9 409.45 403.64Z" fill="#00BBFF"/>
<g opacity="0.3">
<path d="M409.45 403.64L418.1 398.04C418.1 398.04 422.3 375.73 419.18 356.04C414.8 328.26 395.92 318.71 389.06 321.45C382.2 324.19 380.58 332.45 392.97 348.45C400.28 357.91 409.68 377.9 409.45 403.64Z" fill="white"/>
</g>
<path d="M412.6 392.63H412.51C412.348 392.605 412.202 392.518 412.103 392.388C412.004 392.257 411.96 392.093 411.98 391.93C415.57 365.93 405.13 337.51 393.39 326.04C393.272 325.925 393.205 325.767 393.203 325.602C393.201 325.437 393.265 325.278 393.38 325.16C393.495 325.042 393.653 324.975 393.818 324.973C393.983 324.971 394.142 325.035 394.26 325.15C406.21 336.82 416.85 365.71 413.21 392.09C413.191 392.239 413.118 392.375 413.006 392.474C412.894 392.574 412.75 392.629 412.6 392.63Z" fill="white"/>
<path d="M387.67 417.71C386.37 418.45 382.67 415.6 381.67 414.91C379.914 413.713 378.495 412.084 377.55 410.18C376.496 408.008 376.146 405.561 376.55 403.18C376.758 401.925 377.052 400.685 377.43 399.47C377.78 398.27 378.12 397.07 378.43 395.87C378.851 394.709 379.028 393.473 378.95 392.24C378.64 389.78 376.45 388.06 374.47 386.57C372.27 384.93 369.99 382.76 370 379.8C370.158 377.501 371.076 375.32 372.61 373.6C374.03 371.8 375.71 370.22 376.99 368.32C377.998 367.002 378.524 365.379 378.48 363.72C378.342 362.706 378.002 361.73 377.48 360.85C376.48 358.92 375.06 357.15 374.34 355.08C373.62 353.01 373.72 350.43 375.34 348.95C376.66 347.73 378.64 347.56 380.43 347.68C382.113 347.886 383.73 348.456 385.17 349.35C389.87 351.96 392.56 357.53 397.55 359.54C399.517 360.16 401.521 360.654 403.55 361.02C405.55 361.55 407.6 362.58 408.55 364.43C410.38 368.09 406.98 372.6 408.27 376.48C409.41 379.92 412.75 381.23 414.62 384.33C415.384 385.699 415.693 387.275 415.5 388.83C415.337 391.458 414.693 394.034 413.6 396.43C412.366 398.917 410.98 401.324 409.45 403.64L387.67 417.71Z" fill="#00BBFF"/>
<g opacity="0.65">
<path d="M387.67 417.71C386.37 418.45 382.67 415.6 381.67 414.91C379.914 413.713 378.495 412.084 377.55 410.18C376.496 408.008 376.146 405.561 376.55 403.18C376.758 401.925 377.052 400.685 377.43 399.47C377.78 398.27 378.12 397.07 378.43 395.87C378.851 394.709 379.028 393.473 378.95 392.24C378.64 389.78 376.45 388.06 374.47 386.57C372.27 384.93 369.99 382.76 370 379.8C370.158 377.501 371.076 375.32 372.61 373.6C374.03 371.8 375.71 370.22 376.99 368.32C377.998 367.002 378.524 365.379 378.48 363.72C378.342 362.706 378.002 361.73 377.48 360.85C376.48 358.92 375.06 357.15 374.34 355.08C373.62 353.01 373.72 350.43 375.34 348.95C376.66 347.73 378.64 347.56 380.43 347.68C382.113 347.886 383.73 348.456 385.17 349.35C389.87 351.96 392.56 357.53 397.55 359.54C399.517 360.16 401.521 360.654 403.55 361.02C405.55 361.55 407.6 362.58 408.55 364.43C410.38 368.09 406.98 372.6 408.27 376.48C409.41 379.92 412.75 381.23 414.62 384.33C415.384 385.699 415.693 387.275 415.5 388.83C415.337 391.458 414.693 394.034 413.6 396.43C412.366 398.917 410.98 401.324 409.45 403.64L387.67 417.71Z" fill="white"/>
</g>
<path d="M400.23 410.35C400.153 410.348 400.077 410.33 400.007 410.298C399.937 410.265 399.874 410.22 399.822 410.163C399.77 410.106 399.73 410.039 399.703 409.967C399.677 409.894 399.666 409.817 399.67 409.74C400.67 386.5 389.67 360.83 381.67 353.38C381.573 353.27 381.52 353.128 381.522 352.982C381.523 352.835 381.58 352.694 381.679 352.587C381.779 352.48 381.916 352.413 382.062 352.401C382.208 352.389 382.354 352.431 382.47 352.52C390.59 360.13 401.77 386.22 400.79 409.79C400.783 409.936 400.721 410.075 400.618 410.178C400.514 410.282 400.376 410.343 400.23 410.35Z" fill="white"/>
<path d="M396.45 381.94H396.28C390.786 380.419 385.143 379.497 379.45 379.19C379.373 379.188 379.297 379.17 379.227 379.138C379.157 379.105 379.094 379.06 379.042 379.003C378.99 378.946 378.95 378.879 378.923 378.807C378.897 378.734 378.886 378.657 378.89 378.58C378.891 378.503 378.908 378.426 378.94 378.356C378.972 378.285 379.017 378.221 379.075 378.169C379.132 378.117 379.199 378.076 379.272 378.051C379.345 378.025 379.423 378.015 379.5 378.02C385.306 378.323 391.063 379.251 396.67 380.79C396.817 380.841 396.938 380.946 397.009 381.084C397.08 381.222 397.095 381.382 397.05 381.53C397.01 381.656 396.929 381.764 396.821 381.839C396.712 381.913 396.581 381.949 396.45 381.94Z" fill="white"/>
<path d="M124.9 455.51L64.9 425.5L41 436.08L124.9 455.51Z" fill="#00BBFF"/>
<g opacity="0.15">
<path d="M124.9 455.51L64.9 425.5L41 436.08L124.9 455.51Z" fill="white"/>
</g>
<path d="M124.9 455.51L72.05 420.18L81.51 406.58L124.9 455.51Z" fill="#00BBFF"/>
<g opacity="0.15">
<path d="M124.9 455.51L72.05 420.18L81.51 406.58L124.9 455.51Z" fill="white"/>
</g>
<path d="M72.05 420.18L73.04 429.57L124.9 455.51L72.05 420.18Z" fill="#00BBFF"/>
<g opacity="0.2">
<path d="M72.05 420.18L73.04 429.57L124.9 455.51L72.05 420.18Z" fill="black"/>
</g>
<path d="M63.49 418.38C63.6353 418.377 63.7741 418.32 63.88 418.22C64.0024 418.099 64.0762 417.938 64.0873 417.766C64.0983 417.595 64.0459 417.425 63.94 417.29L62.79 415.75C62.7434 415.685 62.6834 415.631 62.6141 415.591C62.5448 415.551 62.4678 415.527 62.3882 415.519C62.3086 415.512 62.2283 415.521 62.1528 415.547C62.0772 415.573 62.008 415.615 61.95 415.67C61.828 415.79 61.7538 415.951 61.7409 416.122C61.728 416.293 61.7774 416.463 61.88 416.6C62.26 417.11 62.65 417.6 63.04 418.11C63.0891 418.187 63.1553 418.251 63.2333 418.298C63.3114 418.345 63.3993 418.373 63.49 418.38Z" fill="#455A64"/>
<path d="M58.22 411.56C57.5066 410.52 56.8166 409.47 56.15 408.41C56.0598 408.264 56.0253 408.091 56.0528 407.922C56.0804 407.753 56.1682 407.599 56.3 407.49C56.3622 407.441 56.4343 407.405 56.5115 407.387C56.5886 407.368 56.6689 407.366 56.7468 407.381C56.8247 407.397 56.8984 407.428 56.9628 407.475C57.0272 407.521 57.0808 407.581 57.12 407.65C57.79 408.7 58.47 409.74 59.12 410.77C59.2179 410.911 59.2599 411.083 59.2377 411.253C59.2155 411.423 59.1307 411.579 59 411.69C58.9029 411.774 58.7785 411.821 58.65 411.82C58.5636 411.811 58.4802 411.783 58.4059 411.738C58.3316 411.693 58.2681 411.632 58.22 411.56ZM52.93 402.97C52.32 401.86 51.72 400.73 51.15 399.6C51.0716 399.448 51.0518 399.272 51.0942 399.106C51.1366 398.941 51.2382 398.796 51.38 398.7C51.4488 398.658 51.526 398.631 51.6062 398.621C51.6864 398.611 51.7678 398.619 51.8448 398.644C51.9218 398.668 51.9925 398.709 52.052 398.764C52.1116 398.819 52.1587 398.885 52.19 398.96C52.75 400.07 53.34 401.18 53.94 402.28C54.0252 402.429 54.0529 402.603 54.0178 402.771C53.9828 402.939 53.8875 403.088 53.75 403.19C53.6566 403.247 53.5495 403.278 53.44 403.28C53.3351 403.278 53.2325 403.249 53.1429 403.194C53.0532 403.14 52.9797 403.062 52.93 402.97ZM48.47 393.81C47.97 392.62 47.47 391.42 47.05 390.23C46.9886 390.072 46.9873 389.898 47.0463 389.739C47.1053 389.581 47.2205 389.449 47.37 389.37C47.4444 389.338 47.5247 389.323 47.6056 389.324C47.6865 389.325 47.7662 389.343 47.8397 389.377C47.9132 389.411 47.9787 389.46 48.0322 389.521C48.0856 389.582 48.1257 389.653 48.15 389.73C48.58 390.9 49.05 392.08 49.55 393.25C49.6172 393.407 49.6248 393.583 49.5714 393.745C49.518 393.907 49.4073 394.044 49.26 394.13C49.1823 394.169 49.0968 394.189 49.01 394.19C48.8927 394.186 48.779 394.149 48.683 394.081C48.587 394.013 48.513 393.919 48.47 393.81ZM45.01 384.13C44.65 382.88 44.31 381.61 44.01 380.38C43.9622 380.217 43.9792 380.042 44.0575 379.891C44.1357 379.74 44.2691 379.625 44.43 379.57C44.5082 379.549 44.5899 379.545 44.6699 379.557C44.7499 379.57 44.8265 379.598 44.895 379.641C44.9634 379.684 45.0223 379.741 45.0679 379.808C45.1135 379.875 45.1448 379.951 45.16 380.03C45.45 381.25 45.78 382.49 46.16 383.72C46.2109 383.881 46.2002 384.055 46.1299 384.208C46.0597 384.362 45.935 384.483 45.78 384.55H45.6C45.4697 384.552 45.3421 384.513 45.2359 384.437C45.1297 384.361 45.0505 384.254 45.01 384.13ZM42.69 374.02C42.49 372.75 42.31 371.45 42.16 370.16C42.1307 369.994 42.1678 369.824 42.2632 369.685C42.3587 369.547 42.5048 369.452 42.67 369.42C42.8339 369.409 42.9958 369.462 43.1209 369.569C43.2461 369.675 43.3247 369.826 43.34 369.99C43.48 371.26 43.66 372.54 43.86 373.79C43.8936 373.953 43.8637 374.122 43.7763 374.264C43.6889 374.405 43.5506 374.507 43.39 374.55H43.28C43.1358 374.543 42.9985 374.486 42.8911 374.389C42.7837 374.293 42.7127 374.163 42.69 374.02ZM41.69 363.66C41.69 362.66 41.63 361.66 41.63 360.59V359.75C41.6259 359.669 41.638 359.587 41.6655 359.51C41.693 359.434 41.7353 359.363 41.7901 359.303C41.8449 359.242 41.9111 359.193 41.9849 359.158C42.0586 359.124 42.1385 359.104 42.22 359.1C42.3854 359.113 42.5391 359.19 42.6477 359.316C42.7563 359.441 42.811 359.604 42.8 359.77V360.59C42.8 361.59 42.8 362.59 42.8 363.59C42.814 363.757 42.7622 363.922 42.6556 364.051C42.5491 364.18 42.3963 364.262 42.23 364.28C42.0798 364.26 41.9419 364.187 41.8424 364.072C41.7429 363.958 41.6887 363.811 41.69 363.66ZM42.48 353.97C42.3163 353.941 42.1701 353.85 42.0715 353.716C41.9729 353.582 41.9294 353.415 41.95 353.25C42.06 351.96 42.2 350.65 42.36 349.36C42.366 349.278 42.3888 349.199 42.4268 349.126C42.4648 349.053 42.5173 348.989 42.581 348.938C42.6447 348.886 42.7183 348.848 42.7972 348.826C42.8762 348.804 42.9588 348.799 43.04 348.81C43.2033 348.844 43.347 348.94 43.4404 349.078C43.5338 349.217 43.5695 349.386 43.54 349.55C43.38 350.82 43.24 352.11 43.13 353.37C43.1229 353.525 43.0587 353.672 42.9498 353.783C42.8409 353.894 42.695 353.96 42.54 353.97H42.48ZM43.88 343.75C43.7198 343.699 43.5852 343.589 43.5034 343.442C43.4217 343.295 43.399 343.123 43.44 342.96C43.7 341.69 44 340.42 44.33 339.17C44.3449 339.091 44.3763 339.015 44.422 338.949C44.4677 338.882 44.5269 338.826 44.5956 338.784C44.6643 338.741 44.7411 338.714 44.821 338.703C44.901 338.692 44.9824 338.698 45.06 338.72C45.2183 338.781 45.3481 338.899 45.4239 339.051C45.4998 339.202 45.5162 339.377 45.47 339.54C45.15 340.76 44.85 342.02 44.59 343.26C44.5691 343.398 44.5008 343.524 44.3968 343.618C44.2927 343.711 44.1595 343.765 44.02 343.77L43.88 343.75ZM46.58 333.86C46.4278 333.786 46.3093 333.657 46.2481 333.5C46.1869 333.342 46.1875 333.167 46.25 333.01C46.68 331.81 47.16 330.6 47.66 329.42C47.6882 329.345 47.7317 329.277 47.7876 329.22C47.8435 329.162 47.9107 329.117 47.9849 329.087C48.0591 329.057 48.1388 329.043 48.2188 329.045C48.2988 329.047 48.3775 329.066 48.45 329.1C48.5957 329.188 48.7051 329.325 48.7583 329.486C48.8115 329.648 48.805 329.823 48.74 329.98C48.24 331.14 47.74 332.32 47.35 333.5C47.3125 333.617 47.2393 333.72 47.1407 333.793C47.0421 333.867 46.9229 333.908 46.8 333.91C46.7235 333.913 46.6477 333.895 46.58 333.86ZM50.69 324.57C50.5491 324.471 50.4498 324.323 50.411 324.155C50.3723 323.987 50.3968 323.811 50.48 323.66C51.09 322.55 51.73 321.44 52.38 320.37C52.4184 320.299 52.4717 320.237 52.5362 320.189C52.6007 320.14 52.6748 320.107 52.7537 320.09C52.8325 320.072 52.914 320.073 52.9928 320.09C53.0716 320.107 53.1456 320.141 53.21 320.19C53.3416 320.299 53.43 320.452 53.4593 320.621C53.4887 320.789 53.457 320.963 53.37 321.11C52.72 322.16 52.09 323.25 51.5 324.34C51.4524 324.435 51.3797 324.515 51.2897 324.571C51.1998 324.628 51.0961 324.658 50.99 324.66C50.8834 324.66 50.7791 324.628 50.69 324.57ZM56 316.08C55.8787 315.961 55.8048 315.802 55.7919 315.633C55.7791 315.464 55.8281 315.296 55.93 315.16C56.68 314.16 57.47 313.16 58.26 312.22C58.3116 312.159 58.3759 312.11 58.4485 312.076C58.521 312.043 58.6 312.025 58.68 312.025C58.7599 312.025 58.8389 312.043 58.9115 312.076C58.984 312.11 59.0483 312.159 59.1 312.22C59.2138 312.348 59.2767 312.514 59.2767 312.685C59.2767 312.856 59.2138 313.022 59.1 313.15C58.32 314.08 57.55 315.04 56.81 316.03C56.7578 316.104 56.6888 316.164 56.6089 316.205C56.5289 316.247 56.4402 316.269 56.35 316.27C56.2737 316.268 56.1986 316.251 56.1296 316.218C56.0607 316.185 55.9994 316.138 55.95 316.08H56ZM62.43 308.6C62.3161 308.472 62.2532 308.306 62.2532 308.135C62.2532 307.964 62.3161 307.798 62.43 307.67C63.31 306.8 64.22 305.95 65.13 305.15C65.19 305.097 65.2608 305.057 65.3376 305.033C65.4144 305.009 65.4954 305.003 65.5751 305.013C65.6548 305.023 65.7313 305.051 65.7995 305.093C65.8676 305.136 65.9257 305.193 65.97 305.26C66.0668 305.402 66.1099 305.573 66.0916 305.743C66.0732 305.914 65.9947 306.072 65.87 306.19C64.97 306.97 64.08 307.8 63.21 308.65C63.1074 308.756 62.9673 308.817 62.82 308.82C62.7349 308.819 62.6512 308.798 62.575 308.76C62.4989 308.722 62.4322 308.667 62.38 308.6H62.43ZM69.79 302.27C69.7079 302.121 69.681 301.949 69.7139 301.782C69.7468 301.616 69.8375 301.466 69.97 301.36C70.97 300.64 71.97 299.97 72.97 299.36C73.0384 299.319 73.1148 299.294 73.1939 299.285C73.273 299.276 73.3531 299.284 73.4288 299.309C73.5045 299.334 73.5741 299.374 73.6329 299.428C73.6917 299.481 73.7385 299.547 73.77 299.62C73.8477 299.771 73.8672 299.945 73.8248 300.109C73.7823 300.273 73.681 300.416 73.54 300.51C72.54 301.11 71.54 301.77 70.54 302.51C70.4463 302.576 70.3344 302.611 70.22 302.61C70.1178 302.598 70.0202 302.561 69.9363 302.502C69.8524 302.442 69.7848 302.363 69.74 302.27H69.79Z" fill="#455A64"/>
<path d="M78.59 297.95H78.77C79.2982 297.75 79.8439 297.599 80.4 297.5C80.5641 297.464 80.7079 297.366 80.8011 297.226C80.8943 297.086 80.9298 296.915 80.9 296.75C80.8937 296.669 80.8713 296.59 80.834 296.517C80.7968 296.445 80.7454 296.381 80.683 296.329C80.6206 296.277 80.5483 296.237 80.4705 296.214C80.3927 296.19 80.3109 296.182 80.23 296.19C79.6105 296.306 79.0017 296.473 78.41 296.69C78.2516 296.753 78.1232 296.874 78.0507 297.028C77.9783 297.182 77.9673 297.358 78.02 297.52C78.0578 297.642 78.1332 297.75 78.2355 297.827C78.3378 297.904 78.4618 297.947 78.59 297.95Z" fill="#455A64"/>
<path d="M377.848 80L409.118 139.353L434.705 144.684L377.848 80Z" fill="#00BBFF"/>
<g opacity="0.15">
<path d="M377.848 80L409.118 139.353L434.705 144.684L377.848 80Z" fill="white"/>
</g>
<path d="M377.848 80L400.207 139.51L384.594 145.049L377.848 80Z" fill="#00BBFF"/>
<g opacity="0.15">
<path d="M377.848 80L400.207 139.51L384.594 145.049L377.848 80Z" fill="white"/>
</g>
<path d="M400.207 139.51L404.875 131.302L377.848 80L400.207 139.51Z" fill="#00BBFF"/>
<g opacity="0.2">
<path d="M400.207 139.51L404.875 131.302L377.848 80L400.207 139.51Z" fill="black"/>
</g>
<path d="M406.114 145.961C405.994 145.879 405.848 145.845 405.704 145.864C405.534 145.89 405.38 145.979 405.271 146.111C405.162 146.244 405.106 146.413 405.113 146.584L405.15 148.506C405.15 148.586 405.167 148.665 405.201 148.738C405.234 148.811 405.282 148.875 405.342 148.928C405.402 148.98 405.473 149.02 405.55 149.042C405.626 149.065 405.707 149.072 405.786 149.061C405.956 149.034 406.109 148.947 406.22 148.815C406.33 148.684 406.388 148.517 406.385 148.346C406.374 147.71 406.342 147.084 406.322 146.443C406.327 146.352 406.311 146.261 406.275 146.177C406.239 146.094 406.184 146.02 406.114 145.961Z" fill="#455A64"/>
<path d="M406.422 154.574C406.396 155.835 406.345 157.091 406.269 158.34C406.257 158.511 406.184 158.672 406.063 158.794C405.942 158.915 405.782 158.989 405.611 159.001C405.531 159.004 405.452 158.991 405.379 158.961C405.305 158.932 405.239 158.886 405.184 158.829C405.13 158.771 405.089 158.702 405.063 158.627C405.038 158.552 405.029 158.472 405.038 158.393C405.105 157.149 405.159 155.908 405.231 154.692C405.233 154.52 405.299 154.356 405.416 154.231C405.534 154.105 405.693 154.028 405.864 154.014C405.992 154.002 406.12 154.037 406.224 154.112C406.289 154.17 406.341 154.241 406.375 154.321C406.409 154.401 406.425 154.488 406.422 154.574ZM405.715 164.638C405.564 165.895 405.393 167.163 405.198 168.414C405.173 168.583 405.087 168.737 404.955 168.847C404.824 168.957 404.658 169.016 404.486 169.011C404.406 169.005 404.327 168.982 404.256 168.943C404.186 168.905 404.124 168.851 404.076 168.786C404.028 168.721 403.994 168.646 403.978 168.567C403.961 168.488 403.962 168.406 403.98 168.328C404.171 167.099 404.339 165.853 404.492 164.61C404.51 164.439 404.589 164.281 404.715 164.165C404.841 164.05 405.006 163.984 405.177 163.981C405.286 163.989 405.391 164.026 405.481 164.089C405.566 164.151 405.632 164.235 405.673 164.331C405.714 164.428 405.729 164.534 405.715 164.638ZM404.001 174.681C403.714 175.939 403.421 177.206 403.069 178.417C403.027 178.581 402.926 178.724 402.786 178.819C402.646 178.913 402.476 178.953 402.308 178.93C402.229 178.912 402.155 178.878 402.09 178.83C402.025 178.782 401.97 178.721 401.93 178.65C401.891 178.58 401.866 178.502 401.858 178.421C401.85 178.341 401.859 178.26 401.884 178.183C402.216 176.981 402.522 175.749 402.797 174.506C402.834 174.34 402.931 174.192 403.068 174.092C403.206 173.991 403.376 173.944 403.546 173.96C403.632 173.974 403.713 174.007 403.784 174.057C403.877 174.128 403.948 174.225 403.986 174.336C404.025 174.447 404.03 174.567 404.001 174.681ZM401.172 184.563C400.736 185.789 400.272 187.019 399.799 188.194C399.743 188.354 399.627 188.486 399.476 188.563C399.324 188.64 399.149 188.656 398.986 188.607C398.91 188.578 398.842 188.534 398.784 188.478C398.726 188.421 398.68 188.353 398.65 188.278C398.619 188.203 398.604 188.123 398.606 188.042C398.608 187.961 398.627 187.881 398.661 187.808C399.136 186.647 399.591 185.447 399.999 184.226C400.051 184.066 400.161 183.931 400.308 183.847C400.454 183.763 400.626 183.737 400.791 183.773L400.937 183.878C401.045 183.952 401.125 184.059 401.167 184.182C401.21 184.306 401.211 184.439 401.172 184.563ZM397.166 194.131C396.588 195.28 395.977 196.441 395.347 197.577C395.274 197.729 395.145 197.845 394.986 197.902C394.828 197.959 394.654 197.952 394.501 197.881C394.361 197.795 394.261 197.657 394.221 197.497C394.182 197.338 394.206 197.169 394.289 197.027C394.915 195.914 395.515 194.769 396.081 193.636C396.148 193.484 396.271 193.364 396.425 193.3C396.578 193.236 396.75 193.234 396.906 193.293L396.995 193.357C397.108 193.447 397.186 193.573 397.218 193.714C397.249 193.855 397.23 194.002 397.166 194.131ZM391.941 203.133C391.358 203.946 390.824 204.793 390.201 205.663L389.711 206.345C389.667 206.414 389.61 206.473 389.542 206.519C389.475 206.566 389.4 206.598 389.32 206.616C389.24 206.633 389.158 206.634 389.078 206.619C388.998 206.604 388.921 206.574 388.853 206.53C388.726 206.423 388.646 206.27 388.631 206.105C388.616 205.94 388.666 205.775 388.772 205.647L389.25 204.981C389.833 204.168 390.415 203.356 390.998 202.543C391.084 202.399 391.222 202.295 391.384 202.252C391.546 202.21 391.718 202.232 391.863 202.314C391.974 202.418 392.043 202.558 392.057 202.709C392.072 202.86 392.03 203.011 391.941 203.133ZM385.652 210.547C385.768 210.666 385.833 210.826 385.836 210.992C385.838 211.158 385.776 211.319 385.663 211.441C384.822 212.425 383.945 213.408 383.063 214.363C383.01 214.426 382.945 214.478 382.872 214.514C382.799 214.551 382.719 214.573 382.637 214.577C382.555 214.582 382.474 214.57 382.397 214.542C382.32 214.514 382.249 214.47 382.19 214.414C382.077 214.291 382.016 214.129 382.021 213.963C382.025 213.796 382.095 213.637 382.215 213.521C383.085 212.582 383.95 211.616 384.774 210.656C384.87 210.534 385.008 210.452 385.161 210.425C385.314 210.399 385.472 210.43 385.603 210.512L385.652 210.547ZM378.558 218.036C378.659 218.171 378.704 218.339 378.685 218.506C378.666 218.673 378.584 218.826 378.456 218.935C377.504 219.815 376.52 220.673 375.524 221.496C375.465 221.552 375.396 221.595 375.32 221.622C375.244 221.65 375.163 221.661 375.083 221.655C375.002 221.65 374.924 221.627 374.852 221.589C374.781 221.552 374.718 221.5 374.668 221.436C374.575 221.295 374.538 221.123 374.565 220.956C374.592 220.788 374.68 220.637 374.813 220.531C375.784 219.726 376.762 218.877 377.696 218.021C377.793 217.921 377.922 217.858 378.061 217.843C378.2 217.828 378.34 217.862 378.456 217.939L378.558 218.036ZM370.601 224.5C370.681 224.649 370.703 224.822 370.66 224.986C370.618 225.15 370.516 225.292 370.374 225.383C369.325 226.108 368.23 226.811 367.136 227.479C367.069 227.523 366.994 227.553 366.915 227.567C366.836 227.581 366.755 227.579 366.677 227.56C366.6 227.541 366.527 227.506 366.463 227.458C366.399 227.409 366.346 227.348 366.307 227.278C366.24 227.122 366.231 226.947 366.282 226.785C366.332 226.623 366.44 226.484 366.584 226.394C367.667 225.743 368.761 225.075 369.765 224.344C369.864 224.27 369.983 224.23 370.106 224.227C370.229 224.225 370.35 224.261 370.451 224.331C370.515 224.373 370.566 224.432 370.601 224.5ZM361.847 229.654C361.904 229.817 361.898 229.995 361.832 230.154C361.765 230.313 361.643 230.442 361.487 230.516C360.345 231.063 359.178 231.592 358.026 232.082C357.953 232.118 357.874 232.137 357.793 232.139C357.713 232.14 357.633 232.125 357.559 232.093C357.485 232.061 357.419 232.013 357.365 231.953C357.311 231.893 357.27 231.822 357.246 231.745C357.203 231.579 357.22 231.404 357.295 231.25C357.369 231.096 357.496 230.973 357.653 230.904C358.793 230.43 359.94 229.911 361.055 229.369C361.149 229.32 361.254 229.297 361.36 229.304C361.466 229.31 361.568 229.346 361.656 229.406C361.742 229.469 361.808 229.555 361.847 229.654ZM352.584 233.459C352.613 233.626 352.581 233.798 352.493 233.943C352.405 234.088 352.267 234.197 352.105 234.247C350.913 234.623 349.688 234.975 348.498 235.279C348.42 235.298 348.34 235.301 348.261 235.286C348.182 235.271 348.108 235.239 348.043 235.192C347.978 235.146 347.924 235.086 347.885 235.016C347.845 234.946 347.822 234.869 347.815 234.789C347.798 234.619 347.843 234.448 347.943 234.308C348.043 234.169 348.19 234.071 348.357 234.034C349.533 233.732 350.718 233.401 351.897 233.028C351.982 232.998 352.073 232.99 352.162 233.002C352.252 233.015 352.337 233.049 352.41 233.101C352.471 233.146 352.522 233.205 352.559 233.271C352.596 233.338 352.618 233.412 352.625 233.488L352.584 233.459ZM343 235.79C343.018 235.961 342.972 236.132 342.872 236.271C342.772 236.411 342.625 236.508 342.458 236.546C341.236 236.74 340.001 236.901 338.795 237.021C338.715 237.029 338.634 237.02 338.558 236.995C338.482 236.969 338.412 236.927 338.353 236.873C338.295 236.818 338.249 236.751 338.218 236.676C338.188 236.602 338.173 236.522 338.177 236.442C338.18 236.27 338.245 236.106 338.359 235.978C338.474 235.85 338.63 235.767 338.8 235.744C339.986 235.635 341.193 235.479 342.395 235.295C342.54 235.269 342.689 235.301 342.811 235.384C342.879 235.435 342.935 235.501 342.975 235.576C343.015 235.651 343.037 235.735 343.04 235.82L343 235.79ZM333.33 236.645C333.31 236.814 333.231 236.97 333.107 237.086C332.983 237.202 332.823 237.271 332.653 237.28C331.421 237.282 330.218 237.244 329.05 237.157C328.97 237.15 328.893 237.126 328.824 237.087C328.755 237.048 328.694 236.995 328.647 236.931C328.6 236.867 328.567 236.793 328.55 236.716C328.534 236.638 328.534 236.557 328.551 236.479C328.576 236.312 328.661 236.159 328.792 236.05C328.922 235.942 329.087 235.885 329.257 235.89C330.419 235.985 331.616 236.032 332.86 236.013C332.975 236.014 333.086 236.051 333.178 236.118C333.255 236.187 333.312 236.275 333.346 236.372C333.379 236.469 333.388 236.573 333.37 236.674L333.33 236.645Z" fill="#455A64"/>
<path d="M323.661 235.028L323.515 234.923C322.969 234.778 322.438 234.582 321.928 234.339C321.773 234.272 321.599 234.268 321.442 234.328C321.285 234.387 321.157 234.505 321.084 234.657C321.042 234.726 321.014 234.803 321.003 234.884C320.991 234.964 320.995 235.047 321.015 235.125C321.036 235.204 321.072 235.278 321.121 235.343C321.17 235.407 321.232 235.462 321.303 235.502C321.873 235.769 322.466 235.988 323.073 236.156C323.238 236.198 323.413 236.174 323.562 236.091C323.71 236.008 323.822 235.872 323.874 235.709C323.914 235.588 323.916 235.456 323.877 235.334C323.839 235.212 323.763 235.104 323.661 235.028Z" fill="#455A64"/>
<path d="M279.148 435.96L271.148 439.39L269.438 447.92C269.389 448.154 269.275 448.37 269.111 448.544C268.946 448.718 268.736 448.842 268.505 448.904C268.273 448.965 268.029 448.96 267.8 448.891C267.571 448.821 267.366 448.69 267.208 448.51L261.478 441.96L252.828 442.96C252.58 442.998 252.327 442.962 252.099 442.856C251.872 442.751 251.68 442.582 251.548 442.369C251.416 442.156 251.349 441.909 251.356 441.659C251.363 441.408 251.444 441.165 251.588 440.96L256.038 433.49L252.418 425.58C252.329 425.368 252.3 425.135 252.333 424.908C252.366 424.68 252.459 424.466 252.603 424.287C252.747 424.107 252.937 423.971 253.153 423.89C253.368 423.81 253.601 423.789 253.828 423.83L262.308 425.76L268.708 419.87C268.883 419.706 269.102 419.594 269.338 419.548C269.574 419.502 269.818 419.524 270.043 419.611C270.267 419.697 270.463 419.846 270.607 420.038C270.751 420.231 270.838 420.46 270.858 420.7L271.648 429.36L279.228 433.62C279.451 433.728 279.638 433.899 279.766 434.111C279.894 434.323 279.958 434.568 279.95 434.816C279.941 435.064 279.861 435.304 279.718 435.507C279.576 435.71 279.378 435.868 279.148 435.96Z" fill="#E0E0E0"/>
<path d="M235.058 421.14C234.987 421.232 234.903 421.313 234.808 421.38C234.638 421.502 234.438 421.574 234.229 421.588C234.02 421.603 233.812 421.558 233.628 421.46L229.178 419.12L224.718 421.46C224.533 421.558 224.325 421.603 224.116 421.588C223.908 421.574 223.707 421.502 223.538 421.38C223.366 421.259 223.233 421.09 223.155 420.895C223.077 420.7 223.057 420.486 223.098 420.28L223.948 415.28L220.338 411.77C220.187 411.624 220.081 411.439 220.031 411.235C219.982 411.032 219.991 410.819 220.058 410.62C220.12 410.421 220.238 410.244 220.397 410.109C220.557 409.975 220.751 409.888 220.958 409.86L225.958 409.14L228.188 404.62C228.279 404.433 228.422 404.276 228.599 404.167C228.775 404.057 228.98 403.999 229.188 404C229.395 404.002 229.598 404.06 229.775 404.17C229.951 404.279 230.094 404.435 230.188 404.62L232.418 409.14L237.418 409.86C237.624 409.89 237.818 409.978 237.978 410.112C238.138 410.247 238.256 410.424 238.321 410.622C238.385 410.821 238.393 411.034 238.343 411.237C238.293 411.439 238.187 411.624 238.038 411.77L234.428 415.28L235.288 420.28C235.326 420.586 235.244 420.894 235.058 421.14ZM220.828 410.75L220.768 410.88C220.743 410.955 220.74 411.035 220.759 411.111C220.779 411.187 220.82 411.256 220.878 411.31L224.738 415.08L223.828 420.4C223.815 420.478 223.825 420.558 223.855 420.632C223.886 420.705 223.936 420.768 224 420.815C224.064 420.861 224.14 420.889 224.219 420.896C224.298 420.902 224.377 420.886 224.448 420.85L229.228 418.34L233.998 420.85C234.066 420.89 234.144 420.91 234.223 420.91C234.302 420.91 234.379 420.89 234.448 420.85C234.514 420.804 234.566 420.74 234.596 420.666C234.626 420.591 234.634 420.509 234.618 420.43L233.708 415.11L237.568 411.34C237.623 411.285 237.663 411.216 237.682 411.14C237.702 411.065 237.7 410.985 237.678 410.91C237.655 410.834 237.611 410.766 237.551 410.715C237.49 410.663 237.416 410.63 237.338 410.62L231.988 409.84L229.548 404.96C229.514 404.887 229.461 404.826 229.393 404.783C229.326 404.741 229.247 404.719 229.168 404.72C229.095 404.728 229.026 404.754 228.967 404.796C228.907 404.838 228.859 404.894 228.828 404.96L226.448 409.8L221.098 410.58C220.99 410.602 220.894 410.662 220.828 410.75Z" fill="#E0E0E0"/>
<path d="M225.15 294.282L179.15 320.922L197.42 351.982C197.772 352.821 198.386 353.522 199.17 353.982C201.35 355.212 214.26 362.692 214.97 363.102C215.524 363.422 216.143 363.612 216.78 363.658C217.418 363.704 218.058 363.605 218.651 363.368C219.245 363.131 219.778 362.763 220.209 362.291C220.64 361.819 220.958 361.255 221.14 360.642L240.98 303.462L225.15 294.282Z" fill="#00BBFF"/>
<path opacity="0.2" d="M225.15 294.282L179.15 320.922L197.42 351.982C197.772 352.821 198.386 353.522 199.17 353.982C201.35 355.212 214.26 362.692 214.97 363.102C215.524 363.422 216.143 363.612 216.78 363.658C217.418 363.704 218.058 363.605 218.651 363.368C219.245 363.131 219.778 362.763 220.209 362.291C220.64 361.819 220.958 361.255 221.14 360.642L240.98 303.462L225.15 294.282Z" fill="black"/>
<path d="M194.98 330.062L213.25 361.122C213.599 361.911 214.182 362.574 214.92 363.021C215.658 363.467 216.516 363.676 217.377 363.62C218.238 363.563 219.06 363.243 219.733 362.703C220.406 362.164 220.897 361.43 221.14 360.602L240.98 303.422L194.98 330.062Z" fill="#00BBFF"/>
<path d="M276.47 134.982L103 235.112C101.837 235.866 100.869 236.884 100.173 238.083C99.4783 239.282 99.0763 240.629 99 242.012V362.402C99.0737 363.781 99.475 365.123 100.171 366.316C100.866 367.509 101.836 368.519 103 369.262L117.27 377.262C118.511 377.887 119.881 378.212 121.27 378.212C122.659 378.212 124.029 377.887 125.27 377.262L298.75 277.072C299.911 276.317 300.879 275.298 301.573 274.1C302.268 272.901 302.671 271.556 302.75 270.172V149.782C302.676 148.404 302.274 147.062 301.578 145.869C300.883 144.677 299.913 143.666 298.75 142.922L284.49 134.922C283.241 134.306 281.866 133.99 280.473 134C279.08 134.011 277.709 134.347 276.47 134.982Z" fill="#00BBFF"/>
<path opacity="0.3" d="M302.68 149.052C302.36 147.052 300.73 146.332 298.74 147.472L125.28 247.632C124.098 248.371 123.129 249.405 122.47 250.632L100.26 237.982C100.927 236.828 101.868 235.856 103 235.152L276.48 134.982C277.722 134.36 279.091 134.036 280.48 134.036C281.869 134.036 283.238 134.36 284.48 134.982L298.74 142.982C299.79 143.657 300.684 144.547 301.364 145.593C302.043 146.64 302.492 147.819 302.68 149.052Z" fill="white"/>
<path d="M121.29 375.382V254.982C121.366 253.6 121.768 252.255 122.464 251.058C123.159 249.86 124.127 248.844 125.29 248.092L298.75 147.982C300.94 146.712 302.75 147.742 302.75 150.282V270.632C302.671 272.016 302.268 273.361 301.573 274.56C300.879 275.758 299.911 276.777 298.75 277.532L125.27 377.682C123.07 378.982 121.29 377.922 121.29 375.382Z" fill="#00BBFF"/>
<path opacity="0.2" d="M125.27 377.222C124.024 377.831 122.656 378.148 121.27 378.148C119.884 378.148 118.516 377.831 117.27 377.222L103.01 369.222C101.847 368.483 100.878 367.476 100.182 366.287C99.4861 365.097 99.0844 363.759 99.01 362.382V241.982C99.081 240.562 99.5185 239.184 100.28 237.982L122.47 250.612C121.739 251.789 121.331 253.138 121.29 254.522V374.912C121.29 377.242 122.93 378.582 125.27 377.222Z" fill="black"/>
<path d="M169.96 278.982L168.23 277.982C167.568 277.604 166.818 277.404 166.055 277.404C165.292 277.404 164.542 277.604 163.88 277.982L153.31 284.082V269.642L172.88 258.352C173.796 257.812 174.555 257.041 175.081 256.117C175.608 255.192 175.883 254.146 175.88 253.082V244.982C175.883 243.919 175.608 242.873 175.081 241.948C174.555 241.024 173.796 240.253 172.88 239.712C171.955 239.177 170.904 238.895 169.835 238.895C168.766 238.895 167.715 239.177 166.79 239.712L139.65 255.382C138.043 256.309 136.709 257.643 135.782 259.249C134.855 260.855 134.368 262.678 134.37 264.532V339.722C134.365 340.788 134.64 341.836 135.166 342.762C135.693 343.689 136.452 344.461 137.37 345.002C138.296 345.536 139.346 345.817 140.415 345.817C141.484 345.817 142.534 345.536 143.46 345.002L150.23 341.102C151.148 340.561 151.907 339.789 152.434 338.862C152.96 337.936 153.235 336.888 153.23 335.822V306.322L169.89 296.702C170.55 296.319 171.098 295.769 171.479 295.107C171.86 294.446 172.06 293.696 172.06 292.932V282.772C172.074 282.012 171.887 281.261 171.518 280.596C171.149 279.931 170.612 279.374 169.96 278.982Z" fill="#E0E0E0"/>
<path opacity="0.1" d="M144.08 344.642L143.5 344.982C142.574 345.515 141.524 345.795 140.456 345.794C139.388 345.793 138.338 345.512 137.413 344.978C136.488 344.445 135.718 343.678 135.183 342.753C134.647 341.829 134.363 340.781 134.36 339.712V264.522C134.363 262.776 134.799 261.058 135.63 259.522L141.72 263.032C140.885 264.567 140.449 266.286 140.45 268.032V342.522C140.452 342.947 140.564 343.364 140.776 343.731C140.988 344.099 141.293 344.405 141.659 344.619C142.026 344.833 142.442 344.948 142.867 344.952C143.291 344.956 143.709 344.85 144.08 344.642Z" fill="black"/>
<path d="M153.31 269.642V291.122L169.94 281.532C170.163 281.402 170.416 281.332 170.674 281.331C170.932 281.33 171.186 281.397 171.41 281.527C171.634 281.656 171.819 281.842 171.947 282.066C172.076 282.29 172.142 282.544 172.14 282.802V292.982C172.14 293.742 171.94 294.488 171.561 295.146C171.182 295.804 170.637 296.351 169.98 296.732L153.31 306.352V335.842C153.314 336.905 153.039 337.95 152.513 338.873C151.986 339.796 151.227 340.565 150.31 341.102L144.15 344.662C143.78 344.877 143.36 344.991 142.932 344.991C142.504 344.991 142.084 344.879 141.714 344.665C141.344 344.451 141.036 344.143 140.823 343.772C140.61 343.401 140.499 342.98 140.5 342.552V268.032C140.5 266.178 140.988 264.357 141.915 262.751C142.842 261.144 144.175 259.81 145.78 258.882L172.66 243.362C172.995 243.169 173.375 243.067 173.761 243.068C174.148 243.068 174.527 243.17 174.862 243.364C175.197 243.557 175.474 243.836 175.667 244.171C175.86 244.506 175.961 244.886 175.96 245.272V253.102C175.963 254.162 175.687 255.204 175.16 256.123C174.634 257.043 173.875 257.808 172.96 258.342L153.31 269.642Z" fill="#FAFAFA"/>
<path d="M211.37 224.222C211.062 223.178 210.521 222.218 209.788 221.413C209.055 220.608 208.149 219.98 207.139 219.576C206.128 219.172 205.039 219.002 203.953 219.079C202.867 219.156 201.813 219.479 200.87 220.022L194.14 223.912C193.273 224.412 192.52 225.087 191.929 225.895C191.339 226.703 190.923 227.625 190.71 228.602L170.64 319.982C170.483 320.753 170.571 321.553 170.892 322.27C171.213 322.988 171.751 323.586 172.43 323.982L174.27 325.042C174.84 325.372 175.487 325.545 176.145 325.545C176.803 325.545 177.45 325.372 178.02 325.042L186.13 320.362C187.259 319.671 188.178 318.686 188.79 317.512C189.474 316.327 189.976 315.047 190.28 313.712L193.54 297.052L209.94 287.582L211.64 294.352C211.881 295.235 212.431 296.002 213.19 296.512C213.87 296.912 218.6 299.622 219.28 300.032C219.719 300.221 220.201 300.286 220.675 300.223C221.148 300.16 221.596 299.969 221.97 299.672L231.87 293.952L211.37 224.222ZM198.04 274.052L201.55 255.982L201.76 254.982L205.48 269.752L198.04 274.052Z" fill="#E0E0E0"/>
<path opacity="0.1" d="M219.2 299.982C218.31 299.452 213.85 296.902 213.2 296.512C212.441 296.002 211.891 295.235 211.65 294.352L209.95 287.582L214.49 284.962L217.74 297.862C217.98 298.711 218.493 299.456 219.2 299.982Z" fill="black"/>
<path opacity="0.1" d="M211.57 273.262L205.48 269.742L201.76 254.982C201.76 254.982 201.76 254.982 201.76 254.922C202.08 253.482 202.4 251.842 202.76 250.022C203.19 247.752 203.59 245.332 203.97 242.742C204.403 244.822 204.833 246.739 205.26 248.492C205.69 250.242 206.09 251.742 206.47 253.002L211.57 273.262Z" fill="black"/>
<path opacity="0.1" d="M176.84 322.982C176.786 323.222 176.795 323.472 176.866 323.708C176.938 323.943 177.069 324.156 177.247 324.326C177.426 324.495 177.645 324.615 177.884 324.674C178.123 324.733 178.373 324.729 178.61 324.662V324.742L178.04 325.062C177.47 325.392 176.823 325.565 176.165 325.565C175.507 325.565 174.86 325.392 174.29 325.062L172.43 323.982C171.751 323.586 171.213 322.988 170.892 322.27C170.571 321.553 170.483 320.753 170.64 319.982L190.7 228.642C190.884 227.797 191.223 226.994 191.7 226.272L197.79 229.792C197.307 230.507 196.968 231.309 196.79 232.152L176.84 322.982Z" fill="black"/>
<path d="M231.88 293.982L221.97 299.702C220.86 300.342 219.97 300.462 219.29 300.062C218.532 299.551 217.982 298.784 217.74 297.902L214.49 284.982L193.49 297.072L190.24 313.732C189.927 315.068 189.421 316.352 188.74 317.542C188.131 318.716 187.211 319.698 186.08 320.382L178.91 324.532C178.669 324.669 178.393 324.734 178.116 324.718C177.839 324.702 177.573 324.606 177.349 324.443C177.125 324.279 176.953 324.054 176.854 323.795C176.755 323.536 176.733 323.254 176.79 322.982L196.74 232.122C196.955 231.147 197.371 230.226 197.961 229.421C198.552 228.615 199.304 227.941 200.17 227.442L206.64 223.702C207.1 223.437 207.614 223.28 208.144 223.242C208.673 223.205 209.205 223.288 209.697 223.485C210.19 223.682 210.632 223.989 210.989 224.382C211.347 224.774 211.61 225.243 211.76 225.752L231.88 293.982ZM211.57 273.282L206.47 252.982C206.09 251.732 205.69 250.222 205.26 248.472C204.83 246.722 204.4 244.802 203.97 242.722C203.6 245.312 203.19 247.722 202.77 250.002C202.35 252.282 201.93 254.242 201.55 255.942L196.49 281.942L211.57 273.282Z" fill="#FAFAFA"/>
<path d="M279.28 258.982C281.026 255.98 282.56 252.859 283.87 249.642C285.223 246.326 286.358 242.926 287.27 239.462C288.19 235.963 288.891 232.409 289.37 228.822C289.861 225.2 290.108 221.548 290.11 217.892C290.217 212.518 289.529 207.156 288.07 201.982C287.029 198.094 285.036 194.527 282.27 191.602C281.399 190.768 280.424 190.049 279.37 189.462L273.37 185.982C271.47 184.881 269.333 184.254 267.14 184.152C263.62 183.952 259.72 185.089 255.44 187.562C250.961 190.193 246.991 193.607 243.72 197.642C240.113 202.021 237.075 206.84 234.68 211.982C229.526 223.074 226.837 235.152 226.8 247.382C226.696 252.765 227.391 258.133 228.86 263.312C229.898 267.212 231.899 270.788 234.68 273.712C235.547 274.572 236.526 275.312 237.59 275.912C238.59 276.472 242.54 278.772 243.52 279.342C245.444 280.456 247.609 281.084 249.83 281.172C253.35 281.346 257.257 280.196 261.55 277.722C263.376 276.668 265.112 275.464 266.74 274.122L269.22 276.972C269.558 277.319 269.942 277.619 270.36 277.862C271.06 278.272 276.04 281.132 276.42 281.362C277.088 281.773 277.868 281.962 278.65 281.902C280.098 281.73 281.489 281.234 282.72 280.452L293.23 274.392L279.28 258.982ZM269.9 233.882C269.263 237.411 268.24 240.858 266.85 244.162C265.631 247.091 263.998 249.829 262 252.292C260.175 254.541 257.96 256.441 255.46 257.902C253.628 259.089 251.519 259.778 249.34 259.902C248.244 258.126 247.462 256.174 247.03 254.132C246.261 250.599 245.905 246.988 245.97 243.372C245.951 239.368 246.306 235.371 247.03 231.432C247.651 227.906 248.657 224.459 250.03 221.152C251.26 218.211 252.904 215.46 254.91 212.982C256.747 210.704 258.983 208.779 261.51 207.302C263.309 206.152 265.377 205.49 267.51 205.382C268.618 207.174 269.409 209.143 269.85 211.202C270.634 214.741 271.007 218.358 270.96 221.982C270.972 225.986 270.617 229.983 269.9 233.922V233.882Z" fill="#E0E0E0"/>
<path opacity="0.1" d="M243.27 279.232C242 278.502 238.51 276.472 237.59 275.952C236.526 275.352 235.547 274.612 234.68 273.752C231.899 270.828 229.898 267.252 228.86 263.352C227.391 258.173 226.696 252.805 226.8 247.422C226.8 241.265 227.491 235.126 228.86 229.122C230.08 223.655 231.849 218.325 234.14 213.212L240.23 216.732C235.42 227.512 232.92 239.179 232.89 250.982C232.786 256.362 233.48 261.727 234.95 266.902C235.986 270.806 237.987 274.386 240.77 277.312C241.53 278.042 242.369 278.686 243.27 279.232Z" fill="black"/>
<path opacity="0.1" d="M272.94 207.982C272.352 207.245 271.617 206.638 270.782 206.199C269.948 205.76 269.031 205.499 268.09 205.432C267.92 205.432 267.74 205.432 267.57 205.432C268.673 207.222 269.461 209.187 269.9 211.242C270.665 214.77 271.02 218.374 270.96 221.982C270.976 226.007 270.621 230.023 269.9 233.982C269.263 237.511 268.24 240.958 266.85 244.262C265.631 247.191 263.998 249.929 262 252.392C260.175 254.641 257.96 256.541 255.46 258.002C253.628 259.189 251.519 259.878 249.34 260.002C249.558 260.354 249.802 260.688 250.07 261.002C250.657 261.745 251.396 262.354 252.238 262.787C253.079 263.22 254.004 263.467 254.95 263.512C257.297 263.501 259.591 262.806 261.55 261.512C264.05 260.051 266.265 258.151 268.09 255.902C270.084 253.436 271.717 250.698 272.94 247.772C274.332 244.465 275.354 241.014 275.99 237.482C276.711 233.524 277.066 229.507 277.05 225.482C277.108 221.884 276.752 218.29 275.99 214.772C275.513 212.303 274.469 209.979 272.94 207.982Z" fill="black"/>
<path opacity="0.1" d="M268.47 272.662C267.9 273.182 267.33 273.662 266.74 274.162L269.22 277.012C269.558 277.359 269.942 277.659 270.36 277.902C271.04 278.302 275.73 280.992 276.36 281.372C275.972 281.135 275.616 280.849 275.3 280.522L268.47 272.662Z" fill="black"/>
<path d="M293.23 274.432L282.72 280.502C281.489 281.276 280.103 281.767 278.66 281.942C278.031 281.974 277.403 281.862 276.822 281.616C276.242 281.37 275.725 280.996 275.31 280.522L268.47 272.662C266.355 274.609 264.035 276.319 261.55 277.762C257.257 280.236 253.35 281.386 249.83 281.212C246.422 281.087 243.186 279.68 240.77 277.272C237.991 274.343 235.99 270.764 234.95 266.862C233.489 261.699 232.795 256.348 232.89 250.982C232.927 238.752 235.616 226.674 240.77 215.582C243.169 210.428 246.214 205.599 249.83 201.212C253.103 197.179 257.073 193.765 261.55 191.132C265.83 188.652 269.73 187.516 273.25 187.722C276.644 187.885 279.855 189.312 282.25 191.722C285.021 194.647 287.015 198.219 288.05 202.112C289.518 207.268 290.212 212.613 290.11 217.972C290.111 221.628 289.867 225.28 289.38 228.902C288.891 232.506 288.183 236.076 287.26 239.592C286.345 243.053 285.206 246.45 283.85 249.762C282.544 252.981 281.01 256.102 279.26 259.102L293.23 274.432ZM245.97 243.432C245.905 247.051 246.261 250.666 247.03 254.202C247.501 256.658 248.527 258.974 250.03 260.972C250.621 261.711 251.361 262.317 252.202 262.749C253.043 263.182 253.966 263.432 254.91 263.482C257.257 263.47 259.55 262.775 261.51 261.482C264.01 260.021 266.225 258.121 268.05 255.872C270.047 253.406 271.683 250.669 272.91 247.742C274.284 244.433 275.291 240.982 275.91 237.452C276.637 233.494 276.992 229.477 276.97 225.452C277.033 221.853 276.677 218.259 275.91 214.742C275.441 212.286 274.415 209.97 272.91 207.972C272.32 207.235 271.583 206.628 270.747 206.189C269.911 205.75 268.992 205.489 268.05 205.422C265.728 205.403 263.453 206.071 261.51 207.342C258.981 208.813 256.744 210.734 254.91 213.012C252.907 215.493 251.264 218.243 250.03 221.182C248.661 224.491 247.655 227.937 247.03 231.462C246.307 235.398 245.952 239.392 245.97 243.392V243.432Z" fill="#FAFAFA"/>
<path d="M100.665 123.481C100.962 120.502 98.1449 118.624 94.0324 118.624C91.9223 118.628 89.8472 119.123 87.9973 120.062C86.1474 121.001 84.5821 122.355 83.445 123.999L72 118.025C76.9 111.387 85.125 107 96.9899 107C109.397 107 117.797 111.857 116.94 121.02C115.837 132.644 102.45 134.36 101.802 141.225H87.4524C88.3799 131.543 100.14 129.083 100.665 123.481ZM84.4075 153.173C84.6641 150.967 85.829 148.938 87.6604 147.506C89.4917 146.074 91.8489 145.349 94.2424 145.483C99.6324 145.483 103.115 148.721 102.695 153.173C102.41 155.393 101.23 157.432 99.3904 158.882C97.5507 160.332 95.1871 161.085 92.7724 160.992C87.365 160.992 83.9875 157.495 84.4075 153.173Z" fill="#E0E0E0"/>
</g>
<defs>
<filter id="filter0_d_1_390" x="-4" y="0" width="508" height="508" filterUnits="userSpaceOnUse" color-interpolation-filters="sRGB">
<feFlood flood-opacity="0" result="BackgroundImageFix"/>
<feColorMatrix in="SourceAlpha" type="matrix" values="0 0 0 0 0 0 0 0 0 0 0 0 0 0 0 0 0 0 127 0" result="hardAlpha"/>
<feOffset dy="4"/>
<feGaussianBlur stdDeviation="2"/>
<feComposite in2="hardAlpha" operator="out"/>
<feColorMatrix type="matrix" values="0 0 0 0 0 0 0 0 0 0 0 0 0 0 0 0 0 0 0.25 0"/>
<feBlend mode="normal" in2="BackgroundImageFix" result="effect1_dropShadow_1_390"/>
<feBlend mode="normal" in="SourceGraphic" in2="effect1_dropShadow_1_390" result="shape"/>
</filter>
</defs>
</svg>
